<?xml version="1.0" standalone="no"?><!DOCTYPE svg PUBLIC "-//W3C//DTD SVG 1.1//EN" "http://www.w3.org/Graphics/SVG/1.1/DTD/svg11.dtd"><svg t="1659411148479" class="icon" viewBox="0 0 1024 1024" version="1.1" xmlns="http://www.w3.org/2000/svg" p-id="1872" data-darkreader-inline-fill="" xmlns:xlink="http://www.w3.org/1999/xlink" width="16" height="16"><defs><style type="text/css">@font-face { font-family: feedback-iconfont; src: url("//at.alicdn.com/t/font_1031158_u69w8yhxdu.woff2?t=1630033759944") format("woff2"), url("//at.alicdn.com/t/font_1031158_u69w8yhxdu.woff?t=1630033759944") format("woff"), url("//at.alicdn.com/t/font_1031158_u69w8yhxdu.ttf?t=1630033759944") format("truetype"); }
</style></defs><path d="M840.416 446.08l-208-112L640 320l-4.32 15.392-400-112 8.64-30.784 401.696 112.448 209.568 112.864-15.168 28.16z m-103.936 325.792l-112-448 31.04-7.744 112 448-31.04 7.744z m-413.984 19.584l304-480 27.008 17.12-304 480-27.008-17.12z" fill="#FFE5B4" p-id="1873" data-darkreader-inline-fill="" style="--darkreader-inline-fill:#603f00;"></path><path d="M64 208a176 176 0 1 0 352 0 176 176 0 1 0-352 0Z" fill="#FFA500" p-id="1874" data-darkreader-inline-fill="" style="--darkreader-inline-fill:#cc8400;"></path><path d="M608 768a128 128 0 1 0 256 0 128 128 0 1 0-256 0Z" fill="#FFA500" p-id="1875" data-darkreader-inline-fill="" style="--darkreader-inline-fill:#cc8400;"></path><path d="M160 800a160 160 0 1 0 320 0 160 160 0 1 0-320 0Z" fill="#3A5BA0" p-id="1876" data-darkreader-inline-fill="" style="--darkreader-inline-fill:#2e4980;"></path><path d="M544 320a96 96 0 1 0 192 0 96 96 0 1 0-192 0Z" fill="#1F4690" p-id="1877" data-darkreader-inline-fill="" style="--darkreader-inline-fill:#193873;"></path><path d="M800 432a48 48 0 1 0 96 0 48 48 0 1 0-96 0Z" fill="#3A5BA0" p-id="1878" data-darkreader-inline-fill="" style="--darkreader-inline-fill:#7aa3cf;"></path></svg>